<svg width="146" height="81" viewBox="0 0 146 81" fill="none" xmlns="http://www.w3.org/2000/svg">
<g clip-path="url(#clip0_1150_4)">
<path d="M145.989 28.8081C146.004 28.6955 146.004 28.5817 145.989 28.4691C146.003 28.3773 146.003 28.2838 145.989 28.1918L144.909 20.2737C144.753 19.3264 144.336 18.441 143.705 17.7165L143.52 17.5008L143.181 17.1619L124.482 1.07912L125.007 1.60293C124.578 1.09025 124.039 0.680167 123.43 0.4029C122.822 0.125632 122.158 -0.0117788 121.489 0.000804772H115.812C114.889 -0.0174598 113.987 0.275631 113.251 0.832684C112.478 0.278986 111.548 -0.0126052 110.597 0.000804772H104.92C104.175 -0.0112583 103.441 0.173269 102.791 0.535756C102.14 0.898243 101.598 1.42582 101.217 2.06505C100.631 2.97807 100.411 4.07811 100.6 5.14605L101.31 10.1372C100.84 9.87111 100.308 9.73302 99.767 9.73675H72.2748C71.2884 9.74292 70.3248 10.0316 69.4977 10.5686C68.6981 11.0684 68.0561 11.7841 67.6465 12.6328L65.5174 10.8151C64.6795 10.0409 63.5734 9.62126 62.4319 9.64431H19.2959C18.306 9.66231 17.3382 9.93844 16.4882 10.4454C15.3253 11.125 14.4731 12.23 14.1122 13.5263L0.412394 59.279C0.156418 60.0329 0.131236 60.846 0.340076 61.6143C0.548916 62.3824 0.982318 63.0713 1.58492 63.5925C1.74193 63.7253 1.9068 63.8489 2.07861 63.9621C2.07861 63.9621 1.80087 63.7772 1.64659 63.6233L20.3451 79.7368C21.1361 80.464 22.1703 80.8704 23.2453 80.8767H66.7209C67.7137 80.851 68.6823 80.564 69.5287 80.0448C70.0074 79.7836 70.4357 79.4393 70.7937 79.0281L70.9481 78.8124L71.1949 78.5044L71.38 78.1654L73.4165 79.9217C74.1961 80.6199 75.2078 81.0041 76.2552 81H119.823C120.815 80.967 121.782 80.6807 122.631 80.1681C123.099 79.8909 123.525 79.5485 123.896 79.1514L124.05 78.9357L124.297 78.6277C124.428 78.4327 124.542 78.2266 124.636 78.0113C124.737 77.8246 124.82 77.6286 124.883 77.4261L137.38 35.6479V35.2781C137.395 35.1348 137.395 34.9902 137.38 34.8468V34.5696C137.395 34.4777 137.395 34.3841 137.38 34.2922C137.394 34.0974 137.394 33.9017 137.38 33.7067H141.391C141.74 33.7387 142.091 33.7387 142.44 33.7067H142.718C142.944 33.6395 143.161 33.5464 143.366 33.4295H143.675L144.23 32.9982L144.477 32.8133L144.909 32.2587V32.074L145.217 31.5501C145.2 31.4483 145.2 31.344 145.217 31.2421C145.201 31.1921 145.201 31.138 145.217 31.088C145.283 30.9074 145.334 30.7219 145.371 30.5334C145.357 30.4726 145.357 30.4092 145.371 30.3485C145.356 30.2567 145.356 30.163 145.371 30.0713C145.371 30.0713 145.989 28.8696 145.989 28.8081Z" fill="#FF471F"/>
<path d="M63.6969 13.1567C63.8608 13.3046 63.9752 13.4991 64.0248 13.7139C64.0746 13.9288 64.057 14.1536 63.9748 14.3582L50.3058 60.0801C50.1337 60.5793 49.7815 60.9966 49.3184 61.251C48.9416 61.5027 48.5054 61.6513 48.0532 61.6823H4.60879C4.23777 61.6645 3.88627 61.511 3.6214 61.251C3.46384 61.1054 3.35325 60.9162 3.30378 60.7079C3.25431 60.4993 3.26824 60.2808 3.34371 60.0801L17.0435 14.3582C17.2014 13.8528 17.5425 13.4243 18.0001 13.1567C18.3831 12.923 18.8172 12.7856 19.2651 12.7561H62.7096C63.0777 12.7597 63.4307 12.9029 63.6969 13.1567ZM41.0182 50.868L49.1949 23.5704H26.3002L18.1543 50.868H41.0182ZM105.167 13.6188C105.315 13.7908 105.5 13.9272 105.709 14.0179C105.917 14.1086 106.143 14.1512 106.37 14.1426H112.017C112.232 14.1447 112.444 14.092 112.633 13.9896C112.822 13.8872 112.981 13.7383 113.097 13.5572C113.197 13.4157 113.268 13.2555 113.305 13.0861C113.342 12.9167 113.344 12.7417 113.312 12.5713L112.202 4.43746C112.096 4.06102 111.906 3.7134 111.647 3.42073C111.498 3.24873 111.313 3.11232 111.105 3.02164C110.896 2.93096 110.67 2.88836 110.443 2.89696H104.797C104.581 2.89488 104.369 2.94753 104.181 3.04995C103.992 3.15238 103.832 3.30119 103.717 3.48237C103.501 3.9137 103.408 4.19098 103.501 4.43746L104.642 12.5713C104.701 12.9673 104.885 13.3343 105.167 13.6188ZM123.094 4.37584C122.988 3.99937 122.798 3.65176 122.538 3.35911C122.396 3.18773 122.217 3.05137 122.013 2.96053C121.81 2.86971 121.588 2.82686 121.366 2.83534H115.688C115.477 2.82933 115.268 2.88056 115.083 2.98361C114.898 3.08667 114.745 3.23773 114.639 3.42073C114.434 3.69406 114.345 4.0374 114.393 4.37584L115.534 12.5096C115.606 12.9015 115.788 13.2649 116.059 13.5572C116.21 13.7258 116.395 13.8599 116.603 13.9503C116.811 14.0407 117.035 14.0853 117.262 14.0809H122.94C123.151 14.0837 123.358 14.0311 123.542 13.9284C123.727 13.8256 123.881 13.6764 123.989 13.4956C124.096 13.3577 124.171 13.1976 124.208 13.027C124.246 12.8564 124.244 12.6797 124.205 12.5096L123.094 4.37584ZM100.199 16.6998L99.6435 12.6945H72.2748C71.8451 12.7182 71.4294 12.8565 71.0714 13.095C70.8442 13.2188 70.6463 13.3903 70.4918 13.5977C70.3375 13.8052 70.23 14.0436 70.1767 14.2966L67.8933 21.9374C67.8022 22.1284 67.771 22.3426 67.804 22.5516C67.8373 22.7606 67.9328 22.9546 68.0784 23.1083C68.3386 23.3525 68.6782 23.4948 69.035 23.5088H102.297L94.1205 50.8064H60.9508C60.5232 50.8161 60.1066 50.9441 59.7476 51.176C59.3112 51.4528 58.9925 51.8807 58.8527 52.3776L56.5386 60.0185C56.463 60.2146 56.4432 60.4276 56.4813 60.6342C56.5195 60.8409 56.6139 61.0329 56.7544 61.1892C57.0065 61.4498 57.3488 61.6041 57.711 61.6205H101.279C101.729 61.5818 102.164 61.4338 102.544 61.1892C103 60.9336 103.341 60.5155 103.501 60.0185L116.028 18.2403H101.927C101.703 18.2447 101.481 18.2032 101.274 18.1184C101.067 18.0336 100.88 17.9073 100.724 17.7473C100.469 17.4679 100.288 17.1288 100.199 16.7614V16.6998Z" fill="white"/>
</g>
<defs>
<clipPath id="clip0_1150_4">
<rect width="145.8" height="81" fill="white" transform="translate(0.200012)"/>
</clipPath>
</defs>
</svg>
