<svg width="50" height="50" viewBox="0 0 50 50" fill="none" xmlns="http://www.w3.org/2000/svg">
<rect x="0.5" y="0.5" width="49" height="49" rx="4.5" stroke="#929292"/>
<g clip-path="url(#clip0_1154_23)">
<path d="M42.9972 18.1131C43.001 18.0853 43.001 18.0572 42.9972 18.0294C43.0008 18.0067 43.0008 17.9836 42.9972 17.9609L42.7305 16.0058C42.6921 15.7719 42.5892 15.5533 42.4334 15.3744L42.3877 15.3212L42.3039 15.2375L37.687 11.2664L37.8165 11.3958C37.7106 11.2692 37.5776 11.1679 37.4273 11.0995C37.277 11.031 37.1132 10.9971 36.948 11.0002H35.5462C35.3182 10.9957 35.0955 11.0681 34.9138 11.2056C34.7231 11.0689 34.4934 10.9969 34.2586 11.0002H32.8568C32.6729 10.9972 32.4916 11.0428 32.331 11.1323C32.1705 11.2218 32.0365 11.3521 31.9426 11.5099C31.7978 11.7353 31.7434 12.0069 31.7902 12.2706L31.9654 13.503C31.8493 13.4373 31.7179 13.4032 31.5845 13.4041H24.7963C24.5527 13.4057 24.3148 13.4769 24.1106 13.6095C23.9131 13.7329 23.7546 13.9096 23.6535 14.1192L23.1278 13.6704C22.9209 13.4792 22.6478 13.3756 22.3659 13.3813H11.715C11.4706 13.3858 11.2316 13.4539 11.0218 13.5791C10.7346 13.7469 10.5242 14.0198 10.4351 14.3398L7.05244 25.6368C6.98924 25.8229 6.98302 26.0237 7.03458 26.2134C7.08615 26.403 7.19316 26.5731 7.34195 26.7018C7.38072 26.7346 7.42143 26.7652 7.46385 26.7931C7.46385 26.7931 7.39527 26.7474 7.35718 26.7094L11.9741 30.6881C12.1694 30.8677 12.4248 30.968 12.6902 30.9695H23.4249C23.6701 30.9632 23.9092 30.8924 24.1182 30.7642C24.2364 30.6997 24.3422 30.6146 24.4306 30.5131L24.4687 30.4599L24.5296 30.3838L24.5753 30.3001L25.0782 30.7337C25.2707 30.9061 25.5205 31.001 25.7791 31H36.5366C36.7815 30.9918 37.0202 30.9211 37.2299 30.7946C37.3454 30.7261 37.4506 30.6416 37.5423 30.5436L37.5803 30.4903L37.6413 30.4142C37.6737 30.3661 37.7018 30.3152 37.7251 30.2621C37.75 30.216 37.7704 30.1675 37.786 30.1175L40.8716 19.802V19.7107C40.8754 19.6753 40.8754 19.6395 40.8716 19.6041V19.5357C40.8753 19.513 40.8753 19.4899 40.8716 19.4672C40.875 19.4191 40.875 19.3708 40.8716 19.3226H41.862C41.9482 19.3305 42.0349 19.3305 42.121 19.3226H42.1896C42.2454 19.306 42.2991 19.283 42.3496 19.2542H42.4258L42.5629 19.1477L42.6239 19.102L42.7305 18.9651V18.9195L42.8067 18.7902C42.8025 18.765 42.8025 18.7392 42.8067 18.7141C42.8027 18.7017 42.8027 18.6884 42.8067 18.6761C42.8229 18.6315 42.8357 18.5857 42.8448 18.5391C42.8413 18.5241 42.8413 18.5085 42.8448 18.4935C42.8411 18.4708 42.8411 18.4477 42.8448 18.425C42.8448 18.425 42.9972 18.1283 42.9972 18.1131Z" fill="#929292"/>
<path d="M22.6782 14.2486C22.7187 14.2851 22.7469 14.3331 22.7592 14.3862C22.7715 14.4392 22.7671 14.4947 22.7468 14.5452L19.3718 25.8346C19.3293 25.9579 19.2423 26.0609 19.128 26.1237C19.0349 26.1859 18.9272 26.2226 18.8156 26.2302H8.08856C7.99695 26.2258 7.91016 26.1879 7.84476 26.1237C7.80585 26.0878 7.77855 26.0411 7.76633 25.9896C7.75412 25.9381 7.75756 25.8842 7.77619 25.8346L11.1589 14.5452C11.1978 14.4204 11.2821 14.3146 11.395 14.2486C11.4896 14.1909 11.5968 14.1569 11.7074 14.1497H22.4344C22.5253 14.1505 22.6125 14.1859 22.6782 14.2486ZM17.0785 23.56L19.0975 16.8199H13.4445L11.4331 23.56H17.0785ZM32.9177 14.3627C32.9543 14.4051 33 14.4388 33.0515 14.4612C33.1029 14.4836 33.1587 14.4941 33.2148 14.492H34.609C34.6621 14.4925 34.7144 14.4795 34.7611 14.4542C34.8078 14.4289 34.8472 14.3922 34.8757 14.3475C34.9004 14.3125 34.9179 14.273 34.9271 14.2311C34.9362 14.1893 34.9369 14.1461 34.929 14.104L34.6547 12.0957C34.6286 12.0027 34.5817 11.9169 34.5176 11.8446C34.481 11.8022 34.4353 11.7685 34.3838 11.7461C34.3324 11.7237 34.2765 11.7132 34.2205 11.7153H32.8263C32.7732 11.7148 32.7208 11.7278 32.6742 11.7531C32.6275 11.7784 32.5881 11.8151 32.5596 11.8598C32.5063 11.9663 32.4834 12.0348 32.5063 12.0957L32.7882 14.104C32.8026 14.2018 32.848 14.2924 32.9177 14.3627ZM37.3441 12.0805C37.318 11.9875 37.2711 11.9017 37.207 11.8294C37.1719 11.7871 37.1275 11.7534 37.0773 11.731C37.0271 11.7086 36.9724 11.698 36.9175 11.7001H35.5156C35.4634 11.6986 35.4118 11.7113 35.3662 11.7367C35.3206 11.7621 35.2827 11.7994 35.2566 11.8446C35.2059 11.9121 35.184 11.9969 35.1957 12.0805L35.4775 14.0888C35.4952 14.1856 35.5401 14.2753 35.6071 14.3475C35.6443 14.3891 35.6902 14.4222 35.7415 14.4445C35.7928 14.4668 35.8482 14.4778 35.9042 14.4768H37.306C37.3581 14.4775 37.4094 14.4645 37.4549 14.4391C37.5004 14.4137 37.5384 14.3769 37.5651 14.3322C37.5916 14.2982 37.6101 14.2587 37.6193 14.2165C37.6286 14.1744 37.6282 14.1308 37.6184 14.0888L37.3441 12.0805ZM31.6911 15.1234L31.5539 14.1344H24.7962C24.6901 14.1403 24.5875 14.1744 24.4991 14.2333C24.443 14.2639 24.3941 14.3062 24.356 14.3575C24.3179 14.4087 24.2913 14.4676 24.2782 14.53L23.7144 16.4166C23.6919 16.4638 23.6842 16.5167 23.6923 16.5683C23.7005 16.6199 23.7241 16.6678 23.7601 16.7058C23.8243 16.7661 23.9082 16.8012 23.9963 16.8046H32.2092L30.1902 23.5448H22.0002C21.8946 23.5472 21.7917 23.5788 21.7031 23.6361C21.5953 23.7044 21.5166 23.8101 21.4821 23.9328L20.9107 25.8194C20.8921 25.8678 20.8872 25.9204 20.8966 25.9714C20.906 26.0225 20.9293 26.0699 20.964 26.1085C21.0263 26.1728 21.1108 26.2109 21.2002 26.215H31.9577C32.069 26.2054 32.1762 26.1689 32.2701 26.1085C32.3826 26.0454 32.467 25.9421 32.5063 25.8194L35.5994 15.5038H32.1177C32.0625 15.5049 32.0076 15.4946 31.9565 15.4737C31.9054 15.4528 31.8592 15.4216 31.8206 15.3821C31.7576 15.3131 31.7131 15.2293 31.6911 15.1386V15.1234Z" fill="white"/>
</g>
<path d="M7.97 39L9.86 34.8H10.628L12.524 39H11.708L10.082 35.214H10.394L8.774 39H7.97ZM8.84 38.028L9.05 37.416H11.318L11.528 38.028H8.84ZM14.3128 39.042C14.0048 39.042 13.7268 38.974 13.4788 38.838C13.2348 38.698 13.0428 38.506 12.9028 38.262C12.7628 38.018 12.6928 37.73 12.6928 37.398C12.6928 37.066 12.7628 36.778 12.9028 36.534C13.0428 36.29 13.2348 36.1 13.4788 35.964C13.7268 35.828 14.0048 35.76 14.3128 35.76C14.5808 35.76 14.8208 35.82 15.0328 35.94C15.2448 36.056 15.4128 36.234 15.5368 36.474C15.6608 36.714 15.7228 37.022 15.7228 37.398C15.7228 37.77 15.6628 38.078 15.5428 38.322C15.4228 38.562 15.2568 38.742 15.0448 38.862C14.8328 38.982 14.5888 39.042 14.3128 39.042ZM14.4028 38.4C14.5828 38.4 14.7428 38.36 14.8828 38.28C15.0268 38.2 15.1408 38.084 15.2248 37.932C15.3128 37.78 15.3568 37.602 15.3568 37.398C15.3568 37.19 15.3128 37.012 15.2248 36.864C15.1408 36.712 15.0268 36.596 14.8828 36.516C14.7428 36.436 14.5828 36.396 14.4028 36.396C14.2228 36.396 14.0608 36.436 13.9168 36.516C13.7768 36.596 13.6628 36.712 13.5748 36.864C13.4908 37.012 13.4488 37.19 13.4488 37.398C13.4488 37.602 13.4908 37.78 13.5748 37.932C13.6628 38.084 13.7768 38.2 13.9168 38.28C14.0608 38.36 14.2228 38.4 14.4028 38.4ZM15.3748 39V38.244L15.4048 37.392L15.3448 36.54V34.548H16.0888V39H15.3748ZM19.05 39V38.352L19.008 38.214V37.08C19.008 36.86 18.942 36.69 18.81 36.57C18.678 36.446 18.478 36.384 18.21 36.384C18.03 36.384 17.852 36.412 17.676 36.468C17.504 36.524 17.358 36.602 17.238 36.702L16.944 36.156C17.116 36.024 17.32 35.926 17.556 35.862C17.796 35.794 18.044 35.76 18.3 35.76C18.764 35.76 19.122 35.872 19.374 36.096C19.63 36.316 19.758 36.658 19.758 37.122V39H19.05ZM18.042 39.042C17.802 39.042 17.592 39.002 17.412 38.922C17.232 38.838 17.092 38.724 16.992 38.58C16.896 38.432 16.848 38.266 16.848 38.082C16.848 37.902 16.89 37.74 16.974 37.596C17.062 37.452 17.204 37.338 17.4 37.254C17.596 37.17 17.856 37.128 18.18 37.128H19.11V37.626H18.234C17.978 37.626 17.806 37.668 17.718 37.752C17.63 37.832 17.586 37.932 17.586 38.052C17.586 38.188 17.64 38.296 17.748 38.376C17.856 38.456 18.006 38.496 18.198 38.496C18.382 38.496 18.546 38.454 18.69 38.37C18.838 38.286 18.944 38.162 19.008 37.998L19.134 38.448C19.062 38.636 18.932 38.782 18.744 38.886C18.56 38.99 18.326 39.042 18.042 39.042ZM22.4965 39.042C22.2365 39.042 21.9985 38.982 21.7825 38.862C21.5705 38.742 21.4005 38.562 21.2725 38.322C21.1485 38.078 21.0865 37.77 21.0865 37.398C21.0865 37.022 21.1465 36.714 21.2665 36.474C21.3905 36.234 21.5585 36.056 21.7705 35.94C21.9825 35.82 22.2245 35.76 22.4965 35.76C22.8125 35.76 23.0905 35.828 23.3305 35.964C23.5745 36.1 23.7665 36.29 23.9065 36.534C24.0505 36.778 24.1225 37.066 24.1225 37.398C24.1225 37.73 24.0505 38.02 23.9065 38.268C23.7665 38.512 23.5745 38.702 23.3305 38.838C23.0905 38.974 22.8125 39.042 22.4965 39.042ZM20.7205 40.164V35.796H21.4345V36.552L21.4105 37.404L21.4705 38.256V40.164H20.7205ZM22.4125 38.4C22.5925 38.4 22.7525 38.36 22.8925 38.28C23.0365 38.2 23.1505 38.084 23.2345 37.932C23.3185 37.78 23.3605 37.602 23.3605 37.398C23.3605 37.19 23.3185 37.012 23.2345 36.864C23.1505 36.712 23.0365 36.596 22.8925 36.516C22.7525 36.436 22.5925 36.396 22.4125 36.396C22.2325 36.396 22.0705 36.436 21.9265 36.516C21.7825 36.596 21.6685 36.712 21.5845 36.864C21.5005 37.012 21.4585 37.19 21.4585 37.398C21.4585 37.602 21.5005 37.78 21.5845 37.932C21.6685 38.084 21.7825 38.2 21.9265 38.28C22.0705 38.36 22.2325 38.4 22.4125 38.4ZM26.0398 39.042C25.6878 39.042 25.4158 38.952 25.2238 38.772C25.0318 38.588 24.9358 38.318 24.9358 37.962V35.088H25.6858V37.944C25.6858 38.096 25.7238 38.214 25.7998 38.298C25.8798 38.382 25.9898 38.424 26.1298 38.424C26.2978 38.424 26.4378 38.38 26.5498 38.292L26.7598 38.826C26.6718 38.898 26.5638 38.952 26.4358 38.988C26.3078 39.024 26.1758 39.042 26.0398 39.042ZM24.4078 36.42V35.82H26.5438V36.42H24.4078ZM27.3768 39V35.796H28.1268V39H27.3768ZM27.7548 35.268C27.6148 35.268 27.4988 35.224 27.4068 35.136C27.3188 35.048 27.2748 34.942 27.2748 34.818C27.2748 34.69 27.3188 34.584 27.4068 34.5C27.4988 34.412 27.6148 34.368 27.7548 34.368C27.8948 34.368 28.0088 34.41 28.0968 34.494C28.1888 34.574 28.2348 34.676 28.2348 34.8C28.2348 34.932 28.1908 35.044 28.1028 35.136C28.0148 35.224 27.8988 35.268 27.7548 35.268ZM29.8971 36.732H31.9911V37.392H29.8971V36.732ZM29.9631 39H29.1831V34.8H32.2491V35.454H29.9631V39ZM32.9315 39V34.548H33.6815V39H32.9315ZM36.1718 39.042C35.8158 39.042 35.5038 38.972 35.2358 38.832C34.9718 38.688 34.7658 38.492 34.6178 38.244C34.4738 37.996 34.4018 37.714 34.4018 37.398C34.4018 37.078 34.4718 36.796 34.6118 36.552C34.7558 36.304 34.9518 36.11 35.1998 35.97C35.4518 35.83 35.7378 35.76 36.0578 35.76C36.3698 35.76 36.6478 35.828 36.8918 35.964C37.1358 36.1 37.3278 36.292 37.4678 36.54C37.6078 36.788 37.6778 37.08 37.6778 37.416C37.6778 37.448 37.6758 37.484 37.6718 37.524C37.6718 37.564 37.6698 37.602 37.6658 37.638H34.9958V37.14H37.2698L36.9758 37.296C36.9798 37.112 36.9418 36.95 36.8618 36.81C36.7818 36.67 36.6718 36.56 36.5318 36.48C36.3958 36.4 36.2378 36.36 36.0578 36.36C35.8738 36.36 35.7118 36.4 35.5718 36.48C35.4358 36.56 35.3278 36.672 35.2478 36.816C35.1718 36.956 35.1338 37.122 35.1338 37.314V37.434C35.1338 37.626 35.1778 37.796 35.2658 37.944C35.3538 38.092 35.4778 38.206 35.6378 38.286C35.7978 38.366 35.9818 38.406 36.1898 38.406C36.3698 38.406 36.5318 38.378 36.6758 38.322C36.8198 38.266 36.9478 38.178 37.0598 38.058L37.4618 38.52C37.3178 38.688 37.1358 38.818 36.9158 38.91C36.6998 38.998 36.4518 39.042 36.1718 39.042ZM37.8724 39L39.2824 37.164L39.2704 37.566L37.9264 35.796H38.7604L39.7024 37.056H39.3844L40.3324 35.796H41.1424L39.7864 37.566L39.7924 37.164L41.1964 39H40.3504L39.3604 37.662L39.6724 37.704L38.7004 39H37.8724ZM41.9898 39.042C41.8538 39.042 41.7378 38.996 41.6418 38.904C41.5458 38.808 41.4978 38.688 41.4978 38.544C41.4978 38.392 41.5458 38.272 41.6418 38.184C41.7378 38.092 41.8538 38.046 41.9898 38.046C42.1258 38.046 42.2418 38.092 42.3378 38.184C42.4338 38.272 42.4818 38.392 42.4818 38.544C42.4818 38.688 42.4338 38.808 42.3378 38.904C42.2418 38.996 42.1258 39.042 41.9898 39.042Z" fill="#929292"/>
<defs>
<clipPath id="clip0_1154_23">
<rect x="7" y="11" width="36" height="20" rx="5" fill="white"/>
</clipPath>
</defs>
</svg>
