<svg width="40" height="39" viewBox="0 0 40 39" fill="none" xmlns="http://www.w3.org/2000/svg">
<path d="M20 0.833344C17.483 0.833344 14.9906 1.3291 12.6652 2.29232C10.3398 3.25553 8.22689 4.66734 6.4471 6.44713C2.85265 10.0416 0.833313 14.9167 0.833313 20C0.833313 28.4717 6.33415 35.6592 13.9433 38.2083C14.9016 38.3617 15.2083 37.7675 15.2083 37.25V34.0108C9.89915 35.1608 8.76831 31.4425 8.76831 31.4425C7.88665 29.2192 6.64081 28.625 6.64081 28.625C4.89665 27.4367 6.77498 27.475 6.77498 27.475C8.69165 27.6092 9.70748 29.4492 9.70748 29.4492C11.375 32.3625 14.1925 31.5 15.285 31.04C15.4575 29.7942 15.9558 28.9508 16.4925 28.4717C12.2375 27.9925 7.77165 26.3442 7.77165 19.0417C7.77165 16.9142 8.49998 15.2083 9.74581 13.8475C9.55415 13.3683 8.88331 11.375 9.93748 8.78751C9.93748 8.78751 11.5475 8.27001 15.2083 10.7425C16.7225 10.3208 18.3708 10.11 20 10.11C21.6291 10.11 23.2775 10.3208 24.7916 10.7425C28.4525 8.27001 30.0625 8.78751 30.0625 8.78751C31.1166 11.375 30.4458 13.3683 30.2541 13.8475C31.5 15.2083 32.2283 16.9142 32.2283 19.0417C32.2283 26.3633 27.7433 27.9733 23.4691 28.4525C24.1591 29.0467 24.7916 30.2158 24.7916 31.9983V37.25C24.7916 37.7675 25.0983 38.3808 26.0758 38.2083C33.685 35.64 39.1666 28.4717 39.1666 20C39.1666 17.483 38.6709 14.9907 37.7077 12.6652C36.7445 10.3398 35.3326 8.22692 33.5529 6.44713C31.7731 4.66734 29.6602 3.25553 27.3347 2.29232C25.0093 1.3291 22.517 0.833344 20 0.833344Z" fill="#9F9F9F"/>
</svg>
